<svg xmlns="http://www.w3.org/2000/svg" xmlns:xlink="http://www.w3.org/1999/xlink" width="52" zoomAndPan="magnify" viewBox="0 0 39 38.999999" height="52" preserveAspectRatio="xMidYMid meet" version="1.0"><defs><g/><clipPath id="8bdb962bea"><path d="M 1.460938 1.460938 L 37.539062 1.460938 L 37.539062 37.539062 L 1.460938 37.539062 Z M 1.460938 1.460938 " clip-rule="nonzero"/></clipPath><clipPath id="a5d347c216"><path d="M 19.5 1.460938 C 9.539062 1.460938 1.460938 9.539062 1.460938 19.5 C 1.460938 29.460938 9.539062 37.539062 19.5 37.539062 C 29.460938 37.539062 37.539062 29.460938 37.539062 19.5 C 37.539062 9.539062 29.460938 1.460938 19.5 1.460938 Z M 19.5 1.460938 " clip-rule="nonzero"/></clipPath><clipPath id="33b581272f"><path d="M 0.460938 0.460938 L 36.539062 0.460938 L 36.539062 36.539062 L 0.460938 36.539062 Z M 0.460938 0.460938 " clip-rule="nonzero"/></clipPath><clipPath id="ca2580486d"><path d="M 18.5 0.460938 C 8.539062 0.460938 0.460938 8.539062 0.460938 18.5 C 0.460938 28.460938 8.539062 36.539062 18.5 36.539062 C 28.460938 36.539062 36.539062 28.460938 36.539062 18.5 C 36.539062 8.539062 28.460938 0.460938 18.5 0.460938 Z M 18.5 0.460938 " clip-rule="nonzero"/></clipPath><clipPath id="b8895bf0d1"><rect x="0" width="37" y="0" height="37"/></clipPath><clipPath id="2de806383f"><rect x="0" width="35" y="0" height="15"/></clipPath></defs><rect x="-3.9" width="46.8" fill="#ffffff" y="-3.9" height="46.799999" fill-opacity="1"/><rect x="-3.9" width="46.8" fill="#ffffff" y="-3.9" height="46.799999" fill-opacity="1"/><g clip-path="url(#8bdb962bea)"><g clip-path="url(#a5d347c216)"><g transform="matrix(1, 0, 0, 1, 1, 1)"><g clip-path="url(#b8895bf0d1)"><g clip-path="url(#33b581272f)"><g clip-path="url(#ca2580486d)"><path fill="#222a5b" d="M 0.460938 0.460938 L 36.539062 0.460938 L 36.539062 36.539062 L 0.460938 36.539062 Z M 0.460938 0.460938 " fill-opacity="1" fill-rule="nonzero"/></g></g></g></g></g></g><g transform="matrix(1, 0, 0, 1, 2, 12)"><g clip-path="url(#2de806383f)"><g fill="#ffffff" fill-opacity="1"><g transform="translate(1.129981, 5.574998)"><g><path d="M 4.15625 0 L 4.15625 -2.421875 L 2.96875 -0.421875 L 2.546875 -0.421875 L 1.359375 -2.375 L 1.359375 0 L 0.484375 0 L 0.484375 -4.046875 L 1.25 -4.046875 L 2.765625 -1.53125 L 4.265625 -4.046875 L 5.03125 -4.046875 L 5.046875 0 Z M 4.15625 0 "/></g></g></g><g fill="#ffffff" fill-opacity="1"><g transform="translate(6.645145, 5.574998)"><g><path d="M 3.609375 -0.75 L 3.609375 0 L 0.484375 0 L 0.484375 -4.046875 L 3.53125 -4.046875 L 3.53125 -3.296875 L 1.40625 -3.296875 L 1.40625 -2.421875 L 3.296875 -2.421875 L 3.296875 -1.6875 L 1.40625 -1.6875 L 1.40625 -0.75 Z M 3.609375 -0.75 "/></g></g></g><g fill="#ffffff" fill-opacity="1"><g transform="translate(10.5202, 5.574998)"><g><path d="M 0.484375 -4.046875 L 2.3125 -4.046875 C 2.757812 -4.046875 3.148438 -3.960938 3.484375 -3.796875 C 3.816406 -3.628906 4.078125 -3.390625 4.265625 -3.078125 C 4.453125 -2.773438 4.546875 -2.421875 4.546875 -2.015625 C 4.546875 -1.617188 4.453125 -1.265625 4.265625 -0.953125 C 4.078125 -0.648438 3.816406 -0.414062 3.484375 -0.25 C 3.148438 -0.0820312 2.757812 0 2.3125 0 L 0.484375 0 Z M 2.265625 -0.765625 C 2.671875 -0.765625 2.992188 -0.875 3.234375 -1.09375 C 3.484375 -1.320312 3.609375 -1.628906 3.609375 -2.015625 C 3.609375 -2.398438 3.484375 -2.707031 3.234375 -2.9375 C 2.992188 -3.164062 2.671875 -3.28125 2.265625 -3.28125 L 1.421875 -3.28125 L 1.421875 -0.765625 Z M 2.265625 -0.765625 "/></g></g></g><g fill="#ffffff" fill-opacity="1"><g transform="translate(15.29038, 5.574998)"><g><path d="M 3.609375 -0.75 L 3.609375 0 L 0.484375 0 L 0.484375 -4.046875 L 3.53125 -4.046875 L 3.53125 -3.296875 L 1.40625 -3.296875 L 1.40625 -2.421875 L 3.296875 -2.421875 L 3.296875 -1.6875 L 1.40625 -1.6875 L 1.40625 -0.75 Z M 3.609375 -0.75 "/></g></g></g><g fill="#ffffff" fill-opacity="1"><g transform="translate(19.165435, 5.574998)"><g><path d="M 0.484375 -4.046875 L 1.421875 -4.046875 L 1.421875 0 L 0.484375 0 Z M 0.484375 -4.046875 "/></g></g></g><g fill="#ffffff" fill-opacity="1"><g transform="translate(21.059652, 5.574998)"><g><path d="M 3.0625 0 L 2.28125 -1.125 L 1.421875 -1.125 L 1.421875 0 L 0.484375 0 L 0.484375 -4.046875 L 2.234375 -4.046875 C 2.585938 -4.046875 2.894531 -3.984375 3.15625 -3.859375 C 3.425781 -3.742188 3.628906 -3.578125 3.765625 -3.359375 C 3.910156 -3.140625 3.984375 -2.878906 3.984375 -2.578125 C 3.984375 -2.273438 3.910156 -2.015625 3.765625 -1.796875 C 3.628906 -1.578125 3.425781 -1.410156 3.15625 -1.296875 L 4.0625 0 Z M 3.046875 -2.578125 C 3.046875 -2.804688 2.96875 -2.976562 2.8125 -3.09375 C 2.664062 -3.21875 2.453125 -3.28125 2.171875 -3.28125 L 1.421875 -3.28125 L 1.421875 -1.875 L 2.171875 -1.875 C 2.453125 -1.875 2.664062 -1.9375 2.8125 -2.0625 C 2.96875 -2.1875 3.046875 -2.359375 3.046875 -2.578125 Z M 3.046875 -2.578125 "/></g></g></g><g fill="#ffffff" fill-opacity="1"><g transform="translate(25.30431, 5.574998)"><g><path d="M 2.4375 0.0625 C 2.019531 0.0625 1.640625 -0.0234375 1.296875 -0.203125 C 0.960938 -0.378906 0.695312 -0.625 0.5 -0.9375 C 0.3125 -1.257812 0.21875 -1.617188 0.21875 -2.015625 C 0.21875 -2.421875 0.3125 -2.78125 0.5 -3.09375 C 0.695312 -3.414062 0.960938 -3.664062 1.296875 -3.84375 C 1.640625 -4.019531 2.019531 -4.109375 2.4375 -4.109375 C 2.851562 -4.109375 3.226562 -4.019531 3.5625 -3.84375 C 3.90625 -3.664062 4.171875 -3.414062 4.359375 -3.09375 C 4.554688 -2.78125 4.65625 -2.421875 4.65625 -2.015625 C 4.65625 -1.617188 4.554688 -1.257812 4.359375 -0.9375 C 4.171875 -0.625 3.90625 -0.378906 3.5625 -0.203125 C 3.226562 -0.0234375 2.851562 0.0625 2.4375 0.0625 Z M 2.4375 -0.734375 C 2.675781 -0.734375 2.890625 -0.785156 3.078125 -0.890625 C 3.273438 -1.003906 3.425781 -1.15625 3.53125 -1.34375 C 3.644531 -1.539062 3.703125 -1.765625 3.703125 -2.015625 C 3.703125 -2.273438 3.644531 -2.5 3.53125 -2.6875 C 3.425781 -2.882812 3.273438 -3.035156 3.078125 -3.140625 C 2.890625 -3.253906 2.675781 -3.3125 2.4375 -3.3125 C 2.195312 -3.3125 1.976562 -3.253906 1.78125 -3.140625 C 1.59375 -3.035156 1.441406 -2.882812 1.328125 -2.6875 C 1.222656 -2.5 1.171875 -2.273438 1.171875 -2.015625 C 1.171875 -1.765625 1.222656 -1.539062 1.328125 -1.34375 C 1.441406 -1.15625 1.59375 -1.003906 1.78125 -0.890625 C 1.976562 -0.785156 2.195312 -0.734375 2.4375 -0.734375 Z M 2.4375 -0.734375 "/></g></g></g><g fill="#ffffff" fill-opacity="1"><g transform="translate(30.178442, 5.574998)"><g><path d="M 1.8125 0.0625 C 1.488281 0.0625 1.175781 0.0195312 0.875 -0.0625 C 0.582031 -0.144531 0.34375 -0.257812 0.15625 -0.40625 L 0.484375 -1.109375 C 0.648438 -0.972656 0.851562 -0.867188 1.09375 -0.796875 C 1.332031 -0.722656 1.570312 -0.6875 1.8125 -0.6875 C 2.082031 -0.6875 2.28125 -0.722656 2.40625 -0.796875 C 2.53125 -0.878906 2.59375 -0.984375 2.59375 -1.109375 C 2.59375 -1.210938 2.554688 -1.296875 2.484375 -1.359375 C 2.410156 -1.421875 2.3125 -1.46875 2.1875 -1.5 C 2.070312 -1.539062 1.914062 -1.585938 1.71875 -1.640625 C 1.40625 -1.710938 1.148438 -1.785156 0.953125 -1.859375 C 0.765625 -1.929688 0.597656 -2.046875 0.453125 -2.203125 C 0.316406 -2.367188 0.25 -2.585938 0.25 -2.859375 C 0.25 -3.085938 0.3125 -3.296875 0.4375 -3.484375 C 0.5625 -3.679688 0.75 -3.832031 1 -3.9375 C 1.257812 -4.050781 1.578125 -4.109375 1.953125 -4.109375 C 2.203125 -4.109375 2.453125 -4.078125 2.703125 -4.015625 C 2.953125 -3.960938 3.171875 -3.875 3.359375 -3.75 L 3.0625 -3.046875 C 2.6875 -3.253906 2.3125 -3.359375 1.9375 -3.359375 C 1.675781 -3.359375 1.484375 -3.316406 1.359375 -3.234375 C 1.234375 -3.148438 1.171875 -3.039062 1.171875 -2.90625 C 1.171875 -2.757812 1.242188 -2.648438 1.390625 -2.578125 C 1.535156 -2.515625 1.753906 -2.453125 2.046875 -2.390625 C 2.359375 -2.316406 2.613281 -2.242188 2.8125 -2.171875 C 3.007812 -2.097656 3.175781 -1.984375 3.3125 -1.828125 C 3.457031 -1.671875 3.53125 -1.457031 3.53125 -1.1875 C 3.53125 -0.957031 3.460938 -0.742188 3.328125 -0.546875 C 3.203125 -0.359375 3.007812 -0.207031 2.75 -0.09375 C 2.488281 0.0078125 2.175781 0.0625 1.8125 0.0625 Z M 1.8125 0.0625 "/></g></g></g><g fill="#ffffff" fill-opacity="1"><g transform="translate(2.137598, 12.312497)"><g><path d="M 4.375 -4.046875 L 2.625 0 L 1.6875 0 L -0.046875 -4.046875 L 0.953125 -4.046875 L 2.1875 -1.15625 L 3.4375 -4.046875 Z M 4.375 -4.046875 "/></g></g></g><g fill="#ffffff" fill-opacity="1"><g transform="translate(6.359153, 12.312497)"><g><path d="M 3.609375 -0.75 L 3.609375 0 L 0.484375 0 L 0.484375 -4.046875 L 3.53125 -4.046875 L 3.53125 -3.296875 L 1.40625 -3.296875 L 1.40625 -2.421875 L 3.296875 -2.421875 L 3.296875 -1.6875 L 1.40625 -1.6875 L 1.40625 -0.75 Z M 3.609375 -0.75 "/></g></g></g><g fill="#ffffff" fill-opacity="1"><g transform="translate(10.234208, 12.312497)"><g><path d="M 0.484375 -4.046875 L 1.421875 -4.046875 L 1.421875 0 L 0.484375 0 Z M 1.203125 -5.203125 L 2.171875 -5.203125 L 1.125 -4.375 L 0.421875 -4.375 Z M 1.203125 -5.203125 "/></g></g></g><g fill="#ffffff" fill-opacity="1"><g transform="translate(12.128425, 12.312497)"><g><path d="M 2.421875 0.0625 C 2.003906 0.0625 1.628906 -0.0234375 1.296875 -0.203125 C 0.960938 -0.378906 0.695312 -0.625 0.5 -0.9375 C 0.3125 -1.257812 0.21875 -1.617188 0.21875 -2.015625 C 0.21875 -2.421875 0.3125 -2.78125 0.5 -3.09375 C 0.695312 -3.414062 0.960938 -3.664062 1.296875 -3.84375 C 1.628906 -4.019531 2.003906 -4.109375 2.421875 -4.109375 C 2.773438 -4.109375 3.09375 -4.046875 3.375 -3.921875 C 3.65625 -3.804688 3.894531 -3.632812 4.09375 -3.40625 L 3.484375 -2.84375 C 3.210938 -3.15625 2.875 -3.3125 2.46875 -3.3125 C 2.21875 -3.3125 1.992188 -3.253906 1.796875 -3.140625 C 1.597656 -3.035156 1.441406 -2.882812 1.328125 -2.6875 C 1.222656 -2.5 1.171875 -2.273438 1.171875 -2.015625 C 1.171875 -1.765625 1.222656 -1.539062 1.328125 -1.34375 C 1.441406 -1.15625 1.597656 -1.003906 1.796875 -0.890625 C 1.992188 -0.785156 2.21875 -0.734375 2.46875 -0.734375 C 2.875 -0.734375 3.210938 -0.890625 3.484375 -1.203125 L 4.09375 -0.65625 C 3.894531 -0.414062 3.648438 -0.234375 3.359375 -0.109375 C 3.078125 0.00390625 2.765625 0.0625 2.421875 0.0625 Z M 2.421875 0.0625 "/></g></g></g><g fill="#ffffff" fill-opacity="1"><g transform="translate(16.326879, 12.312497)"><g><path d="M 2.28125 0.0625 C 1.695312 0.0625 1.242188 -0.09375 0.921875 -0.40625 C 0.597656 -0.726562 0.4375 -1.1875 0.4375 -1.78125 L 0.4375 -4.046875 L 1.375 -4.046875 L 1.375 -1.8125 C 1.375 -1.09375 1.675781 -0.734375 2.28125 -0.734375 C 2.570312 -0.734375 2.796875 -0.816406 2.953125 -0.984375 C 3.109375 -1.160156 3.1875 -1.4375 3.1875 -1.8125 L 3.1875 -4.046875 L 4.109375 -4.046875 L 4.109375 -1.78125 C 4.109375 -1.1875 3.945312 -0.726562 3.625 -0.40625 C 3.300781 -0.09375 2.851562 0.0625 2.28125 0.0625 Z M 2.28125 0.0625 "/></g></g></g><g fill="#ffffff" fill-opacity="1"><g transform="translate(20.877612, 12.312497)"><g><path d="M 0.484375 -4.046875 L 1.421875 -4.046875 L 1.421875 -0.765625 L 3.453125 -0.765625 L 3.453125 0 L 0.484375 0 Z M 0.484375 -4.046875 "/></g></g></g><g fill="#ffffff" fill-opacity="1"><g transform="translate(24.296436, 12.312497)"><g><path d="M 2.4375 0.0625 C 2.019531 0.0625 1.640625 -0.0234375 1.296875 -0.203125 C 0.960938 -0.378906 0.695312 -0.625 0.5 -0.9375 C 0.3125 -1.257812 0.21875 -1.617188 0.21875 -2.015625 C 0.21875 -2.421875 0.3125 -2.78125 0.5 -3.09375 C 0.695312 -3.414062 0.960938 -3.664062 1.296875 -3.84375 C 1.640625 -4.019531 2.019531 -4.109375 2.4375 -4.109375 C 2.851562 -4.109375 3.226562 -4.019531 3.5625 -3.84375 C 3.90625 -3.664062 4.171875 -3.414062 4.359375 -3.09375 C 4.554688 -2.78125 4.65625 -2.421875 4.65625 -2.015625 C 4.65625 -1.617188 4.554688 -1.257812 4.359375 -0.9375 C 4.171875 -0.625 3.90625 -0.378906 3.5625 -0.203125 C 3.226562 -0.0234375 2.851562 0.0625 2.4375 0.0625 Z M 2.4375 -0.734375 C 2.675781 -0.734375 2.890625 -0.785156 3.078125 -0.890625 C 3.273438 -1.003906 3.425781 -1.15625 3.53125 -1.34375 C 3.644531 -1.539062 3.703125 -1.765625 3.703125 -2.015625 C 3.703125 -2.273438 3.644531 -2.5 3.53125 -2.6875 C 3.425781 -2.882812 3.273438 -3.035156 3.078125 -3.140625 C 2.890625 -3.253906 2.675781 -3.3125 2.4375 -3.3125 C 2.195312 -3.3125 1.976562 -3.253906 1.78125 -3.140625 C 1.59375 -3.035156 1.441406 -2.882812 1.328125 -2.6875 C 1.222656 -2.5 1.171875 -2.273438 1.171875 -2.015625 C 1.171875 -1.765625 1.222656 -1.539062 1.328125 -1.34375 C 1.441406 -1.15625 1.59375 -1.003906 1.78125 -0.890625 C 1.976562 -0.785156 2.195312 -0.734375 2.4375 -0.734375 Z M 2.4375 -0.734375 "/></g></g></g><g fill="#ffffff" fill-opacity="1"><g transform="translate(29.170567, 12.312497)"><g><path d="M 1.8125 0.0625 C 1.488281 0.0625 1.175781 0.0195312 0.875 -0.0625 C 0.582031 -0.144531 0.34375 -0.257812 0.15625 -0.40625 L 0.484375 -1.109375 C 0.648438 -0.972656 0.851562 -0.867188 1.09375 -0.796875 C 1.332031 -0.722656 1.570312 -0.6875 1.8125 -0.6875 C 2.082031 -0.6875 2.28125 -0.722656 2.40625 -0.796875 C 2.53125 -0.878906 2.59375 -0.984375 2.59375 -1.109375 C 2.59375 -1.210938 2.554688 -1.296875 2.484375 -1.359375 C 2.410156 -1.421875 2.3125 -1.46875 2.1875 -1.5 C 2.070312 -1.539062 1.914062 -1.585938 1.71875 -1.640625 C 1.40625 -1.710938 1.148438 -1.785156 0.953125 -1.859375 C 0.765625 -1.929688 0.597656 -2.046875 0.453125 -2.203125 C 0.316406 -2.367188 0.25 -2.585938 0.25 -2.859375 C 0.25 -3.085938 0.3125 -3.296875 0.4375 -3.484375 C 0.5625 -3.679688 0.75 -3.832031 1 -3.9375 C 1.257812 -4.050781 1.578125 -4.109375 1.953125 -4.109375 C 2.203125 -4.109375 2.453125 -4.078125 2.703125 -4.015625 C 2.953125 -3.960938 3.171875 -3.875 3.359375 -3.75 L 3.0625 -3.046875 C 2.6875 -3.253906 2.3125 -3.359375 1.9375 -3.359375 C 1.675781 -3.359375 1.484375 -3.316406 1.359375 -3.234375 C 1.234375 -3.148438 1.171875 -3.039062 1.171875 -2.90625 C 1.171875 -2.757812 1.242188 -2.648438 1.390625 -2.578125 C 1.535156 -2.515625 1.753906 -2.453125 2.046875 -2.390625 C 2.359375 -2.316406 2.613281 -2.242188 2.8125 -2.171875 C 3.007812 -2.097656 3.175781 -1.984375 3.3125 -1.828125 C 3.457031 -1.671875 3.53125 -1.457031 3.53125 -1.1875 C 3.53125 -0.957031 3.460938 -0.742188 3.328125 -0.546875 C 3.203125 -0.359375 3.007812 -0.207031 2.75 -0.09375 C 2.488281 0.0078125 2.175781 0.0625 1.8125 0.0625 Z M 1.8125 0.0625 "/></g></g></g></g></g></svg>